<svg id="Layer_1" data-name="Layer 1" xmlns="http://www.w3.org/2000/svg" viewBox="0 0 135.67 33.41"><defs><style>.cls-1{fill:#1f2234;}.cls-2{fill:#fac608;}.cls-3{fill:#fff;}</style></defs><title>kupidr_1</title><path class="cls-1" d="M18.9,6.44a2,2,0,0,0-.23-.82s0,0-.06,0,0,0,0,.07a2.44,2.44,0,0,1,0,.3,1.32,1.32,0,0,1-.17.61,1.2,1.2,0,0,0-.16.56,2,2,0,0,0,.18.74s0,0,.07,0a0,0,0,0,0,0-.06,2,2,0,0,1,0-.31A1.22,1.22,0,0,1,18.72,7,1.48,1.48,0,0,0,18.9,6.44ZM19.8,11a2.87,2.87,0,0,0-.13-.38,2.05,2.05,0,0,1-.17-.72.74.74,0,0,1,0-.12l0-.1a0,0,0,0,0-.05-.06s0,0-.06,0a2.12,2.12,0,0,0-.06.54,3.29,3.29,0,0,0,0,.38,2.12,2.12,0,0,1,0,.38V11ZM18.6,8.32s-.05,0-.05.07a3.85,3.85,0,0,1,0,.66,2.53,2.53,0,0,1-.31,1.07A2.65,2.65,0,0,0,18,11h.72v0a4.71,4.71,0,0,1,.07-.73,4.8,4.8,0,0,0,.08-.75,4.49,4.49,0,0,0-.18-1.11S18.63,8.31,18.6,8.32ZM17.36,6.37a1.77,1.77,0,0,1,.14-.54.05.05,0,0,0,0-.08.06.06,0,0,0-.08,0A3.72,3.72,0,0,0,17.14,7c0,.12,0,.28,0,.47a3.08,3.08,0,0,1,0,.48c0,.4-.1.61-.3.61s-.36-.31-.36-.93c0-.15,0-.35,0-.59s0-.44,0-.58a2.45,2.45,0,0,0-.13-.83,5.71,5.71,0,0,0-.36-.78.05.05,0,0,0-.06,0c-.06,0-.08,0-.05.09a2.74,2.74,0,0,1,.21.94A4,4,0,0,1,16,7a4,4,0,0,0-.23,1.16A4.12,4.12,0,0,0,16,9.47a4,4,0,0,1,.27,1.28,2.26,2.26,0,0,1,0,.27l1.1,0a4.8,4.8,0,0,1,.26-1.15,4.28,4.28,0,0,0,.27-1.31,3,3,0,0,0-.28-1.12A3.15,3.15,0,0,1,17.36,6.37ZM15.2,8.78A3.63,3.63,0,0,1,15,7.59a4,4,0,0,0-.13-1.12s0,0-.07,0,0,0,0,.07a1.66,1.66,0,0,1,0,.32,2.25,2.25,0,0,1-.14.72,2.36,2.36,0,0,0-.15.73A2.11,2.11,0,0,0,14.7,9a2.09,2.09,0,0,1,.18.7.22.22,0,0,1-.06.14.16.16,0,0,1-.13.07c-.18,0-.33-.13-.46-.39a1.53,1.53,0,0,1-.16-.67s0,0-.06,0,0,0-.06,0a1.89,1.89,0,0,0,.18.89l.39.76a1.88,1.88,0,0,1,.21.52l1,0s0,0,0-.07,0-.15,0-.26,0-.19,0-.24a2.28,2.28,0,0,0-.18-.89Zm3.56,8.12.41.5a1.75,1.75,0,0,0,.21-.5Z"/><path class="cls-2" d="M26.71,26.58a14.09,14.09,0,0,1-6.28,3.72,14.94,14.94,0,0,1-1.79.37A14,14,0,0,1,7.24,6.37,13.64,13.64,0,0,1,9,5l-.41-.5-.73-.9A15.83,15.83,0,1,0,27.85,28Z"/><path class="cls-1" d="M32.51,16.76A15.79,15.79,0,0,1,27.85,28l-1.14-1.4a14,14,0,0,0-10-23.86A13.89,13.89,0,0,0,9,5L9,5l-.41-.5-.73-.9A15.83,15.83,0,0,1,32.51,16.76Z"/><path class="cls-1" d="M19.85,11.3a9.65,9.65,0,0,1-.16,1.2,1.7,1.7,0,0,0,0,.22H15.34l-1.2-1.46L14,11h.77l1,0c0,.29.1.43.28.43s.25-.14.29-.43l1.1,0v.14a5.08,5.08,0,0,0,0,.53c0,.19.12.29.26.29s.23-.09.27-.27a2.81,2.81,0,0,0,0-.51A1.28,1.28,0,0,1,18,11h.72c0,.46.12.7.34.7s.4-.24.41-.71h.35A1.39,1.39,0,0,1,19.85,11.3Z"/><path class="cls-1" d="M27.1,14.81a3.88,3.88,0,0,1-3.88,3.88H20.43v.24L19.17,17.4l-.41-.5h4.46a2.09,2.09,0,1,0,0-4.18H19.65a1.7,1.7,0,0,1,0-.22,9.65,9.65,0,0,0,.16-1.2A1.39,1.39,0,0,0,19.8,11l3.42,0A3.88,3.88,0,0,1,27.1,14.81Z"/><path class="cls-2" d="M14,11l1.38,1.68h0L9.19,22.9l-1.95,0V4.51H8.6L9,5,9,5V19.68l4.86-8.63Z"/><polygon class="cls-2" points="20.43 18.93 20.43 31.5 18.64 31.5 18.64 16.89 18.76 16.89 20.43 18.93"/><polygon class="cls-2" points="13.72 18.49 16.13 22.91 14.42 22.91 12.79 19.73 13.72 18.49"/><polygon class="cls-3" points="22.4 19.15 23.88 19.15 26.2 22.91 24.3 22.91 22.4 19.15"/><path class="cls-2" d="M35,26.66V5.45h2.76v10.4l7.89-10.4h2.93L41,15.52l8.68,11.14H46.17L37.75,15.85V26.66Z"/><path class="cls-2" d="M64.33,11.39V26.66H61.79V23.32a9.18,9.18,0,0,1-2.74,2.83,5.67,5.67,0,0,1-3,.94,4.42,4.42,0,0,1-2.45-.72A3.8,3.8,0,0,1,52,24.48a15.37,15.37,0,0,1-.44-4.56V11.39h2.54v8.85a11.76,11.76,0,0,0,.22,2.9,2.27,2.27,0,0,0,.78,1.16,1.9,1.9,0,0,0,1.22.45,4.7,4.7,0,0,0,2.88-1.26,10.43,10.43,0,0,0,2.55-3.2v-8.9Z"/><path class="cls-2" d="M70.92,14.83a8.36,8.36,0,0,1,2.8-2.89,6,6,0,0,1,3-1,4.61,4.61,0,0,1,3.44,1.65,7.2,7.2,0,0,1,1.53,5,10.65,10.65,0,0,1-1,4.74A8.42,8.42,0,0,1,78,25.67a7,7,0,0,1-4.2,1.21c-.47,0-1.2-.05-2.18-.15l-.66-.07V32.6H68.38V11.39h2.54Zm0,3V24.4a10.58,10.58,0,0,0,2.54.35,5,5,0,0,0,3.89-1.81,7.26,7.26,0,0,0,1.58-5,5.72,5.72,0,0,0-.86-3.43,2.46,2.46,0,0,0-1.95-1.15,4.2,4.2,0,0,0-2.62,1.21A11.55,11.55,0,0,0,70.92,17.85Z"/><path class="cls-2" d="M89.65,26.66V13.51H85.41V11.39h6.78V24.55h4.26v2.11ZM89.23,5.88a1.47,1.47,0,0,1,.58-1.28,2,2,0,0,1,1.11-.43A2,2,0,0,1,92,4.6a1.48,1.48,0,0,1,.59,1.28A1.49,1.49,0,0,1,92,7.16a1.93,1.93,0,0,1-1.12.42,2,2,0,0,1-1.11-.42A1.48,1.48,0,0,1,89.23,5.88Z"/><path class="cls-2" d="M112.37,23.23a8.17,8.17,0,0,1-2.79,2.89,6,6,0,0,1-3,1,4.55,4.55,0,0,1-3.44-1.66,7.15,7.15,0,0,1-1.53-5,10.78,10.78,0,0,1,1-4.74,8.62,8.62,0,0,1,2.71-3.3,7.09,7.09,0,0,1,4.2-1.21c.48,0,1.21.06,2.19.16l.65.06V4.6h2.56V26.66h-2.56Zm0-3V13.66a10.22,10.22,0,0,0-2.51-.35,4.93,4.93,0,0,0-3.92,1.82,7.35,7.35,0,0,0-1.57,4.95,5.71,5.71,0,0,0,.86,3.42,2.43,2.43,0,0,0,2,1.16,4.27,4.27,0,0,0,2.62-1.21A11.18,11.18,0,0,0,112.37,20.21Z"/><path class="cls-1" d="M121.71,17.3v9.36h-2.87V4.6h5.9a11.43,11.43,0,0,1,4.25.59A4.59,4.59,0,0,1,131.11,7a4.86,4.86,0,0,1,.74,2.58,7,7,0,0,1-.5,2.57A7.68,7.68,0,0,1,130,14.43a9,9,0,0,1-2.52,1.93l6.38,10.3h-3.41l-5.84-9.36Zm0-2.22h4a7.38,7.38,0,0,0,2-1.51,5.83,5.83,0,0,0,1-1.63,4.68,4.68,0,0,0,.34-1.74A3,3,0,0,0,128,7.73c-.75-.61-2.12-.91-4.1-.91h-2.15Z"/></svg>