<svg id="Layer_1" data-name="Layer 1" xmlns="http://www.w3.org/2000/svg" viewBox="0 0 169 44"><defs><style>.cls-1{fill:#fff;}.cls-2{fill:#fac608;}</style></defs><title>kupidr copy</title><path class="cls-1" d="M25.25,8A2.65,2.65,0,0,0,25,6.92s-.05,0-.09,0a.07.07,0,0,0,0,.1,2.51,2.51,0,0,1,0,.4,1.77,1.77,0,0,1-.22.82,1.72,1.72,0,0,0-.23.76,2.81,2.81,0,0,0,.25,1,.08.08,0,0,0,.09,0,.07.07,0,0,0,.05-.08,2.82,2.82,0,0,1,0-.42A2,2,0,0,1,25,8.81,1.78,1.78,0,0,0,25.25,8Zm1.22,6.12a2.54,2.54,0,0,0-.17-.51,2.79,2.79,0,0,1-.23-1,.55.55,0,0,1,0-.16l0-.13a.08.08,0,0,0-.15,0,3,3,0,0,0-.08.73,3,3,0,0,0,.06.52,3.92,3.92,0,0,1,.05.51v.06Zm-1.62-3.59a.1.1,0,0,0-.07.1,5.07,5.07,0,0,1,.06.89A3.31,3.31,0,0,1,24.41,13a3.82,3.82,0,0,0-.4,1.18h1v0a6.18,6.18,0,0,1,.1-1,6.36,6.36,0,0,0,.11-1,6.27,6.27,0,0,0-.25-1.5Q24.91,10.56,24.85,10.57ZM23.17,7.94a2.63,2.63,0,0,1,.19-.74s0-.08,0-.1a.09.09,0,0,0-.11.06,4.94,4.94,0,0,0-.34,1.64,5.93,5.93,0,0,0,.05.64,5.75,5.75,0,0,1,0,.64c0,.56-.14.83-.4.83s-.49-.42-.49-1.25c0-.21,0-.48,0-.8s0-.59,0-.79A3.65,3.65,0,0,0,22,7a9.25,9.25,0,0,0-.49-1s0-.06-.08-.06-.1,0-.07.12a3.76,3.76,0,0,1,.29,1.27,5.24,5.24,0,0,1-.31,1.59,5.44,5.44,0,0,0-.3,1.57,5.6,5.6,0,0,0,.36,1.74,5.33,5.33,0,0,1,.37,1.73c0,.13,0,.26,0,.36l1.49,0a6.5,6.5,0,0,1,.36-1.56,5.76,5.76,0,0,0,.36-1.77,4.24,4.24,0,0,0-.38-1.51A4.11,4.11,0,0,1,23.17,7.94Zm-2.92,3.25A4.58,4.58,0,0,1,20,9.6a5.47,5.47,0,0,0-.17-1.53c0-.05,0-.07-.09-.05s-.06,0-.06.1a1.86,1.86,0,0,1,.05.42,3.27,3.27,0,0,1-.2,1,3.38,3.38,0,0,0-.2,1,2.94,2.94,0,0,0,.24,1,2.84,2.84,0,0,1,.24.94.3.3,0,0,1-.07.19.21.21,0,0,1-.18.1c-.24,0-.45-.18-.63-.53a2.24,2.24,0,0,1-.22-.91c0-.05,0-.07-.07-.07s-.07,0-.08.06a2.49,2.49,0,0,0,.24,1.21l.53,1a2.82,2.82,0,0,1,.28.7l1.34,0s0-.06,0-.1,0-.19,0-.35,0-.26,0-.32a3.16,3.16,0,0,0-.25-1.21C20.56,11.89,20.4,11.54,20.25,11.19Zm4.82,11,.55.68a2.36,2.36,0,0,0,.29-.68Z"/><path class="cls-2" d="M35.81,35.28a19,19,0,0,1-8.48,5,17.74,17.74,0,0,1-2.43.5,19.33,19.33,0,0,1-2.65.19A19,19,0,0,1,9.49,7.94a18.5,18.5,0,0,1,2.38-1.85l-.55-.67-1-1.21a21.41,21.41,0,1,0,27,33Z"/><path class="cls-1" d="M43.67,22a21.34,21.34,0,0,1-6.31,15.17l-1.55-1.89A19,19,0,0,0,11.91,6.07l0,0-.55-.67-1-1.21A21.41,21.41,0,0,1,43.67,22Z"/><path class="cls-1" d="M26.54,14.61a12.49,12.49,0,0,1-.22,1.63,2.5,2.5,0,0,0-.05.29H20.43l-1.61-2-.25-.3h1l1.34,0c0,.39.14.59.38.59s.34-.2.39-.6l1.49,0v.19a5.22,5.22,0,0,0,0,.72c.05.26.17.39.35.39s.31-.12.37-.37a4.81,4.81,0,0,0,0-.68,2.46,2.46,0,0,1,0-.26h1c0,.64.16,1,.46,1s.55-.32.56-1h.47A1.6,1.6,0,0,1,26.54,14.61Z"/><path class="cls-1" d="M36.35,19.36a5.26,5.26,0,0,1-5.26,5.24H27.33v.34l-1.71-2.08-.55-.68h6a2.83,2.83,0,1,0,0-5.65H26.27a2.5,2.5,0,0,1,.05-.29,12.49,12.49,0,0,0,.22-1.63,1.6,1.6,0,0,0-.07-.45l4.62-.05A5.26,5.26,0,0,1,36.35,19.36Z"/><path class="cls-2" d="M18.57,14.26l1.86,2.27h0L12.12,30.3l-2.63,0V5.42h1.83l.55.67,0,0V25.94l6.57-11.68Z"/><polygon class="cls-2" points="27.33 24.93 27.33 41.93 24.9 41.93 24.9 22.18 25.07 22.18 27.33 24.93"/><polygon class="cls-2" points="18.25 24.34 21.5 30.31 19.19 30.31 16.99 26.01 18.25 24.34"/><polygon class="cls-1" points="29.99 25.23 31.99 25.23 35.13 30.31 32.56 30.31 29.99 25.23"/><path class="cls-2" d="M53.15,37.49V16.27h2.76v10.4l7.89-10.4h2.92L59.11,26.35l8.68,11.14H64.33L55.91,26.67V37.49Z"/><path class="cls-2" d="M82.49,22.22V37.49H79.94V34.14A9.16,9.16,0,0,1,77.21,37a5.59,5.59,0,0,1-3,.94,4.49,4.49,0,0,1-2.45-.71,3.8,3.8,0,0,1-1.55-1.89,15.08,15.08,0,0,1-.44-4.56V22.22H72.3v8.84A12.59,12.59,0,0,0,72.51,34a2.37,2.37,0,0,0,.78,1.15,2,2,0,0,0,1.23.46,4.67,4.67,0,0,0,2.87-1.27,10.1,10.1,0,0,0,2.55-3.19v-8.9Z"/><path class="cls-2" d="M89.08,25.65a8.36,8.36,0,0,1,2.8-2.89,6,6,0,0,1,3-1,4.62,4.62,0,0,1,3.45,1.66,7.16,7.16,0,0,1,1.53,5,10.64,10.64,0,0,1-1,4.73,8.62,8.62,0,0,1-2.71,3.3,7.09,7.09,0,0,1-4.2,1.21q-.7,0-2.19-.15l-.65-.07v5.93H86.53V22.22h2.55Zm0,3v6.55a10.14,10.14,0,0,0,2.54.36,5,5,0,0,0,3.89-1.82,7.28,7.28,0,0,0,1.58-4.95,5.7,5.7,0,0,0-.86-3.43,2.45,2.45,0,0,0-2-1.15,4.28,4.28,0,0,0-2.62,1.2A11.53,11.53,0,0,0,89.08,28.67Z"/><path class="cls-2" d="M107.81,37.49V24.34h-4.24V22.22h6.78V35.37h4.25v2.12Zm-.43-20.78a1.5,1.5,0,0,1,.59-1.29,1.93,1.93,0,0,1,1.11-.42,2,2,0,0,1,1.12.42,1.5,1.5,0,0,1,.59,1.29A1.47,1.47,0,0,1,110.2,18a2,2,0,0,1-1.12.42A1.93,1.93,0,0,1,108,18,1.47,1.47,0,0,1,107.38,16.71Z"/><path class="cls-2" d="M130.53,34.06a8.16,8.16,0,0,1-2.8,2.88,5.92,5.92,0,0,1-3,1,4.57,4.57,0,0,1-3.43-1.65,7.18,7.18,0,0,1-1.53-5,10.78,10.78,0,0,1,1-4.74,8.58,8.58,0,0,1,2.71-3.29,7,7,0,0,1,4.2-1.21c.48,0,1.21.05,2.18.15l.66.07v-6.8h2.56V37.49h-2.56Zm0-3V24.49a9.8,9.8,0,0,0-2.51-.36A5,5,0,0,0,124.1,26a7.3,7.3,0,0,0-1.57,4.95,5.71,5.71,0,0,0,.86,3.42,2.43,2.43,0,0,0,2,1.16,4.28,4.28,0,0,0,2.62-1.2A11.64,11.64,0,0,0,130.53,31Z"/><path class="cls-1" d="M139.87,28.12v9.37H137V15.42h5.9a11.47,11.47,0,0,1,4.25.59,4.53,4.53,0,0,1,2.11,1.79,4.72,4.72,0,0,1,.75,2.57,7.15,7.15,0,0,1-.5,2.57,7.64,7.64,0,0,1-1.37,2.31,9,9,0,0,1-2.52,1.93L152,37.49h-3.41l-5.85-9.37Zm0-2.22h4a7,7,0,0,0,2-1.51,5.69,5.69,0,0,0,1-1.63,4.68,4.68,0,0,0,.34-1.74,3,3,0,0,0-1.13-2.46c-.75-.61-2.12-.92-4.1-.92h-2.15Z"/></svg>